<svg xmlns="http://www.w3.org/2000/svg" width="1857.333" height="561.333" preserveAspectRatio="xMidYMid meet" version="1.0" viewBox="0 0 1393 421"><g fill="#000" stroke="none"><path d="M6915 4204 c-358 -37 -887 -213 -1225 -407 -583 -334 -965 -748 -1091 -1182 -55 -190 -67 -404 -29 -528 12 -39 57 -77 93 -77 29 0 39 47 48 240 13 265 40 380 127 543 131 243 295 426 568 634 192 146 479 309 714 406 213 87 489 161 704 188 143 17 378 6 510 -25 300 -72 520 -256 617 -520 47 -127 70 -333 69 -641 0 -222 -8 -387 -26 -495 -7 -47 -54 -182 -68 -197 -6 -6 -92 -32 -191 -57 -204 -51 -270 -76 -370 -138 -290 -179 -501 -478 -574 -813 -27 -122 -37 -309 -21 -408 14 -95 30 -134 67 -168 100 -93 181 -104 299 -38 58 32 98 66 191 165 65 69 137 153 161 187 134 192 292 463 385 662 52 112 69 159 113 307 15 52 20 58 49 64 24 4 46 -1 81 -19 126 -65 209 -215 270 -487 34 -155 67 -171 188 -91 112 73 213 96 421 96 211 0 247 -11 580 -168 l140 -66 1005 -15 c1047 -16 1244 -20 1775 -36 908 -29 1029 -35 1208 -66 49 -8 101 -12 117 -9 75 16 85 112 16 154 -42 26 -176 36 -702 51 -192 5 -423 12 -514 15 -91 3 -761 15 -1489 26 l-1323 21 -107 45 c-533 226 -664 256 -865 198 -48 -14 -111 -36 -139 -49 -29 -12 -71 -26 -94 -29 -37 -6 -44 -4 -61 18 -11 14 -23 41 -27 62 -31 169 -186 379 -326 442 -98 44 -107 80 -64 236 39 140 56 281 62 520 10 392 -36 654 -158 897 -114 228 -340 413 -599 491 -154 47 -387 74 -515 61z m956 -2260 c17 -15 17 -18 0 -67 -52 -150 -376 -719 -552 -970 -58 -83 -222 -256 -262 -277 -25 -12 -32 -12 -55 1 -38 21 -90 131 -101 215 -30 210 85 509 290 755 135 162 288 267 459 317 166 48 193 51 221 26z" transform="translate(0.000000,421.000000) scale(0.100000,-0.100000)"/><path d="M1522 3640 c-297 -87 -559 -292 -880 -692 -239 -297 -430 -642 -524 -948 -36 -118 -71 -286 -94 -455 -25 -182 -26 -574 -1 -695 64 -322 248 -579 502 -705 228 -114 526 -97 765 42 76 45 238 181 401 339 86 83 187 173 225 200 l68 49 141 7 c77 4 159 11 181 17 77 20 168 65 324 161 222 138 264 160 298 160 17 0 66 -18 109 -39 173 -86 420 -82 915 15 188 37 260 32 388 -29 52 -25 118 -53 145 -63 75 -26 229 -28 521 -8 142 10 378 18 524 18 292 1 356 -7 510 -67 41 -16 101 -35 134 -43 52 -13 61 -13 83 1 58 39 55 99 -10 143 -163 112 -643 157 -1200 113 -418 -33 -454 -30 -647 51 l-125 52 -165 0 c-159 0 -174 -2 -415 -51 -288 -59 -361 -67 -456 -51 -54 9 -78 20 -116 50 -26 21 -72 57 -101 80 l-54 42 -65 -33 c-36 -17 -116 -64 -177 -103 -346 -221 -492 -298 -561 -298 -69 0 -93 48 -62 123 8 18 63 97 124 177 121 161 158 238 145 300 -7 31 -13 36 -50 44 -33 7 -53 4 -102 -14 -53 -20 -71 -34 -146 -119 -95 -107 -146 -196 -170 -297 -8 -37 -23 -88 -33 -114 -62 -162 -437 -544 -666 -678 -83 -49 -161 -77 -270 -99 -108 -21 -177 -12 -305 38 -98 39 -111 47 -193 128 -81 79 -93 96 -149 211 -98 203 -128 352 -128 632 1 393 93 753 294 1152 173 341 360 596 594 809 134 121 235 187 387 253 115 49 140 56 217 61 73 5 98 2 158 -17 166 -53 313 -229 405 -484 64 -177 125 -462 125 -584 0 -116 -34 -201 -125 -317 -62 -78 -68 -182 -12 -216 31 -18 31 -18 76 7 109 59 198 334 192 594 -5 252 -132 672 -259 857 -119 173 -332 306 -513 318 -62 4 -90 0 -177 -25z m631 -2343 c7 -20 -18 -72 -44 -91 -26 -18 -38 -20 -58 -7 -18 12 8 58 52 89 37 26 43 27 50 9z" transform="translate(0.000000,421.000000) scale(0.100000,-0.100000)"/></g></svg>